<svg xmlns="http://www.w3.org/2000/svg" width="840" height="620" viewBox="0 0 840 620">
  <defs>
    <filter id="shadow" x="-20%" y="-20%" width="140%" height="140%"><feDropShadow dx="0" dy="12" stdDeviation="18" flood-color="#000" flood-opacity=".22"/></filter>
  </defs>
  <rect width="840" height="620" fill="#ededed"/>
  <g filter="url(#shadow)">
    <rect x="0" y="0" width="840" height="620" rx="28" fill="#f6f6f6" stroke="#bebebe"/>
    <path d="M28 0h784a28 28 0 0 1 28 28v40H0V28A28 28 0 0 1 28 0z" fill="#ececec"/>
    <circle cx="40" cy="36" r="12" fill="#ff5f56"/><circle cx="76" cy="36" r="12" fill="#ffbd2e"/><circle cx="112" cy="36" r="12" fill="#27c93f"/>
    <text x="420" y="42" text-anchor="middle" font-family="-apple-system,BlinkMacSystemFont,Helvetica,Arial" font-size="28" fill="#242424">StudioPair Settings</text>
    <text x="44" y="118" font-family="-apple-system,BlinkMacSystemFont,Helvetica,Arial" font-size="26" fill="#3c3c3c">Connect two Studio Display speaker outputs.</text>
    <line x1="44" y1="172" x2="796" y2="172" stroke="#d0d0d0"/>
    <text x="44" y="216" font-family="-apple-system,BlinkMacSystemFont,Helvetica,Arial" font-weight="700" font-size="24" fill="#2d2d2d">Output Mode</text>
    <circle cx="58" cy="258" r="14" fill="#fff" stroke="#666"/><circle cx="58" cy="258" r="6" fill="#007aff"/>
    <text x="88" y="267" font-family="-apple-system,BlinkMacSystemFont,Helvetica,Arial" font-size="26" fill="#232323">Stereo</text>
    <circle cx="268" cy="258" r="14" fill="#fff" stroke="#666"/>
    <text x="298" y="267" font-family="-apple-system,BlinkMacSystemFont,Helvetica,Arial" font-size="26" fill="#232323">Mono</text>
    <text x="44" y="330" font-family="-apple-system,BlinkMacSystemFont,Helvetica,Arial" font-weight="700" font-size="24" fill="#2d2d2d">Monitor Assignment</text>
    <text x="44" y="388" font-family="-apple-system,BlinkMacSystemFont,Helvetica,Arial" font-size="26" fill="#2d2d2d">Left</text>
    <rect x="168" y="360" width="600" height="56" rx="12" fill="#fff" stroke="#b8b8b8"/>
    <text x="188" y="397" font-family="-apple-system,BlinkMacSystemFont,Helvetica,Arial" font-size="24" fill="#242424">Studio Display (ABC123)</text>
    <path d="M732 382l20 0l-10 12z" fill="#555"/>
    <text x="44" y="464" font-family="-apple-system,BlinkMacSystemFont,Helvetica,Arial" font-size="26" fill="#2d2d2d">Right</text>
    <rect x="168" y="436" width="600" height="56" rx="12" fill="#fff" stroke="#b8b8b8"/>
    <text x="188" y="473" font-family="-apple-system,BlinkMacSystemFont,Helvetica,Arial" font-size="24" fill="#242424">Studio Display (DEF456)</text>
    <path d="M732 458l20 0l-10 12z" fill="#555"/>
    <line x1="44" y1="526" x2="796" y2="526" stroke="#d0d0d0"/>
    <rect x="44" y="554" width="330" height="44" rx="10" fill="#fff" stroke="#aaa"/>
    <text x="209" y="584" text-anchor="middle" font-family="-apple-system,BlinkMacSystemFont,Helvetica,Arial" font-size="22" fill="#181818">Apply Output Settings</text>
    <rect x="404" y="554" width="392" height="44" rx="10" fill="#fff" stroke="#aaa"/>
    <text x="600" y="584" text-anchor="middle" font-family="-apple-system,BlinkMacSystemFont,Helvetica,Arial" font-size="22" fill="#181818">Install or Reinstall Virtual Driver</text>
  </g>
</svg>
